<svg width="22" height="23" viewBox="0 0 22 23" fill="none" xmlns="http://www.w3.org/2000/svg">
<g clip-path="url(#clip0_3727_9498)">
<circle cx="10.8694" cy="11.4465" r="10.8712" fill="black"/>
<path d="M11.6347 14.3535C11.3825 14.3535 11.0604 14.2153 10.103 13.6629C9.52978 13.3322 8.76172 12.8685 7.82069 12.2843C6.22403 11.2937 4.65478 10.283 4.6392 10.2729L3.55615 9.57472L10.8641 5.38832C11.0905 5.25798 11.3395 5.17844 11.5958 5.1546C11.8521 5.13076 12.1103 5.16312 12.3545 5.24969C13.2888 5.58628 15.043 6.27483 16.2947 7.10096C17.6557 7.99946 17.8387 9.07845 17.8267 9.64225C17.807 10.5849 17.2379 11.4571 16.2665 12.0348C15.4872 12.4976 14.5168 13.0404 13.6706 13.4847C12.1391 14.2894 11.8714 14.3274 11.743 14.3457C11.7071 14.3509 11.6709 14.3535 11.6347 14.3535ZM6.47294 9.65066C6.99682 9.98368 7.65777 10.4015 8.33568 10.8233C10.5825 12.2218 11.3761 12.6495 11.6527 12.7797C12.2261 12.5498 14.0428 11.5943 15.5645 10.6897C16.0774 10.3844 16.3768 9.98957 16.3851 9.60606C16.3935 9.20636 16.0843 8.77005 15.5369 8.40842C14.3653 7.63488 12.599 6.96022 11.8941 6.70588C11.8372 6.68627 11.7772 6.67941 11.7177 6.6857C11.6583 6.692 11.6007 6.71133 11.5485 6.74248L6.47294 9.65066Z" fill="url(#paint0_linear_3727_9498)"/>
<path d="M11.6347 17.7383C11.3825 17.7383 11.0604 17.6001 10.103 17.0477C9.52978 16.717 8.76172 16.2533 7.82069 15.6693C6.22403 14.6785 4.65478 13.6678 4.6392 13.6577L3.55615 12.9606L10.8641 8.77248C11.0905 8.64214 11.3395 8.5626 11.5958 8.53876C11.8521 8.51491 12.1103 8.54727 12.3545 8.63384C13.2888 8.97044 15.0428 9.65898 16.2947 10.4851C17.6557 11.3836 17.8387 12.4626 17.8267 13.0264C17.807 13.9691 17.2379 14.8413 16.2665 15.419C15.4872 15.8818 14.5168 16.4245 13.6706 16.8688C12.1391 17.6735 11.8714 17.7116 11.743 17.7299C11.7071 17.7352 11.671 17.7381 11.6347 17.7383ZM6.47294 13.0357C6.99682 13.3685 7.65777 13.7863 8.33568 14.2081C10.5825 15.6066 11.3761 16.0343 11.6527 16.1645C12.2261 15.9348 14.0428 14.9801 15.5645 14.0755C16.0774 13.7703 16.3768 13.3754 16.3851 12.9919C16.3935 12.5922 16.0843 12.1559 15.5369 11.794C14.3653 11.0207 12.599 10.3461 11.8941 10.0917C11.8372 10.072 11.7772 10.0651 11.7177 10.0714C11.6582 10.0778 11.6006 10.0972 11.5485 10.1285L6.47294 13.0357Z" fill="url(#paint1_linear_3727_9498)"/>
</g>
<defs>
<linearGradient id="paint0_linear_3727_9498" x1="3.29768" y1="5.14699" x2="16.0745" y2="5.49175" gradientUnits="userSpaceOnUse">
<stop stop-color="#FFB703"/>
<stop offset="0.35783" stop-color="#FFD877" stop-opacity="0.99"/>
<stop offset="1" stop-color="#FFBF1E" stop-opacity="0.994003"/>
</linearGradient>
<linearGradient id="paint1_linear_3727_9498" x1="3.29768" y1="8.53115" x2="16.0745" y2="8.87588" gradientUnits="userSpaceOnUse">
<stop stop-color="#FFB703"/>
<stop offset="0.35783" stop-color="#FFD877" stop-opacity="0.99"/>
<stop offset="1" stop-color="#FFBF1E" stop-opacity="0.994003"/>
</linearGradient>
<clipPath id="clip0_3727_9498">
<rect width="21.7435" height="21.7435" fill="white" transform="translate(0 0.57782)"/>
</clipPath>
</defs>
</svg>
