<svg width="22" height="22" viewBox="0 0 22 22" fill="none" xmlns="http://www.w3.org/2000/svg">
<g clip-path="url(#clip0_3727_9468)">
<circle cx="10.8694" cy="10.8686" r="10.8712" fill="black"/>
<path fill-rule="evenodd" clip-rule="evenodd" d="M16.7209 13.6859H14.4997C15.0639 12.9519 15.403 12.0347 15.403 11.0361C15.403 10.0363 15.0631 9.11819 14.4977 8.38369H16.7197C17.0962 9.1892 17.3076 10.0877 17.3076 11.0361C17.3076 11.9835 17.0965 12.8811 16.7209 13.6859ZM11.0704 13.6859C9.61073 13.6859 8.42736 12.499 8.42736 11.0349C8.42736 9.5707 9.61073 8.38369 11.0704 8.38369C12.5303 8.38369 13.7134 9.5707 13.7134 11.0349C13.7134 12.499 12.5303 13.6859 11.0704 13.6859ZM6.7354 11.0361C6.7354 13.4375 8.67561 15.3841 11.0693 15.3841C11.7117 15.3841 12.3192 15.24 12.8676 14.9884V17.0278C12.2982 17.1993 11.6954 17.2926 11.0704 17.2926C7.62583 17.2926 4.83325 14.4916 4.83325 11.0361C4.83325 7.58068 7.62583 4.77955 11.0704 4.77955C11.6954 4.77955 12.2982 4.8729 12.8676 5.04445V7.0836C12.3192 6.83204 11.7117 6.68808 11.0693 6.68808C8.67561 6.68808 6.7354 8.63479 6.7354 11.0361Z" fill="white"/>
</g>
<defs>
<clipPath id="clip0_3727_9468">
<rect width="21.7435" height="21.7435" fill="white"/>
</clipPath>
</defs>
</svg>
