<svg width="23" height="22" viewBox="0 0 23 22" fill="none" xmlns="http://www.w3.org/2000/svg">
<g clip-path="url(#clip0_3727_9564)">
<g clip-path="url(#clip1_3727_9564)">
<path d="M11.7433 21.7409C17.7469 21.7409 22.6138 16.874 22.6138 10.8704C22.6138 4.86682 17.7469 -6.10352e-05 11.7433 -6.10352e-05C5.73968 -6.10352e-05 0.872803 4.86682 0.872803 10.8704C0.872803 16.874 5.73968 21.7409 11.7433 21.7409Z" fill="#EBEDFF"/>
<path d="M11.7696 2.80101V2.80905C11.7777 2.84922 11.7777 2.89743 11.7777 2.94564V8.73862C11.7696 8.77075 11.7455 8.77879 11.7214 8.79486C11.5527 8.87521 11.392 8.94752 11.2233 9.01983C10.9903 9.12428 10.7492 9.23676 10.5162 9.34121L9.67259 9.72688C9.43959 9.83133 9.20658 9.93578 8.98161 10.0402C8.70843 10.1688 8.42722 10.2893 8.15404 10.4179C7.92104 10.5223 7.68803 10.6348 7.44699 10.7392C7.25416 10.8276 7.06133 10.908 6.87653 10.9964C6.86046 11.0044 6.84439 11.0124 6.82833 11.0124C6.82029 11.0124 6.82029 11.0124 6.81226 11.0044L7.02919 10.6428C7.44699 9.95185 7.85676 9.2689 8.27456 8.57792C8.71647 7.83874 9.16641 7.09955 9.60831 6.36036C10.0181 5.67742 10.4359 4.99447 10.8456 4.31153C11.1429 3.81338 11.4482 3.31523 11.7455 2.81708C11.7536 2.80101 11.7616 2.79298 11.7616 2.77691H11.7696C11.7616 2.78494 11.7696 2.79298 11.7696 2.80101Z" fill="#8A92B2"/>
<path d="M16.7017 11.0022L16.7097 11.0102L15.5286 11.7092L11.8166 13.9027C11.8005 13.9107 11.7845 13.9188 11.7764 13.9268C11.7523 13.9268 11.7523 13.9027 11.7523 13.8947V13.8223V8.85694C11.7523 8.83283 11.7523 8.80069 11.7604 8.77659C11.7684 8.74445 11.7925 8.75249 11.8166 8.76052C11.921 8.80873 12.0335 8.85694 12.138 8.90514C12.4513 9.04977 12.7647 9.19439 13.078 9.33098C13.3512 9.4515 13.6164 9.58005 13.8895 9.70057C14.1627 9.82109 14.4359 9.94965 14.7091 10.0702C14.9421 10.1746 15.1831 10.2871 15.4161 10.3916C15.6491 10.496 15.8902 10.6085 16.1232 10.7129C16.308 10.7933 16.4928 10.8817 16.6776 10.962C16.6776 10.9861 16.6856 10.9942 16.7017 11.0022Z" fill="#454A75"/>
<path d="M11.7695 18.9163C11.7695 18.9243 11.7615 18.9323 11.7615 18.9404H11.7534C11.7534 18.9243 11.7374 18.9163 11.7293 18.9002C11.2312 18.2012 10.733 17.4941 10.2349 16.7951C9.72871 16.08 9.21449 15.3569 8.70831 14.6418C8.2182 13.9508 7.72005 13.2518 7.22994 12.5608C7.10138 12.3761 6.97283 12.1993 6.84427 12.0145C6.83624 11.9984 6.8282 11.9904 6.81213 11.9663C6.83624 11.9663 6.85231 11.9824 6.86034 11.9904C7.55936 12.4002 8.25034 12.8099 8.94935 13.2197C9.75281 13.6937 10.5482 14.1678 11.3517 14.6418L11.7615 14.8829C11.7775 14.8989 11.7775 14.915 11.7775 14.9311V18.8038C11.7775 18.8439 11.7775 18.8841 11.7695 18.9163Z" fill="#8A92B2"/>
<path d="M6.80334 11.0191V11.0111C7.06045 10.8986 7.30953 10.7781 7.56664 10.6656C7.89606 10.5129 8.22548 10.3683 8.5549 10.2156C8.80397 10.1032 9.06108 9.98263 9.31015 9.87015C9.67975 9.70142 10.0413 9.54073 10.4109 9.372C10.66 9.25952 10.909 9.14703 11.1662 9.02651C11.3429 8.94617 11.5277 8.86582 11.7045 8.78547C11.7205 8.77744 11.7447 8.7694 11.7527 8.75333C11.7607 8.75333 11.7607 8.76137 11.7527 8.7694V13.8714C11.7527 13.8955 11.7447 13.9196 11.7607 13.9357C11.7447 13.9598 11.7286 13.9357 11.7205 13.9276C11.6482 13.8875 11.5759 13.8473 11.5036 13.7991C9.95293 12.8831 8.3942 11.9592 6.84352 11.0432C6.83548 11.0352 6.81941 11.0271 6.80334 11.0191Z" fill="#62688F"/>
<path d="M16.6863 11.9663H16.6944C16.6944 11.9824 16.6783 11.9984 16.6703 12.0145C15.1919 14.0955 13.7135 16.1845 12.2352 18.2654C12.0825 18.4824 11.9218 18.6993 11.7691 18.9163C11.7611 18.9082 11.7611 18.9002 11.7611 18.8922V18.8439V14.9471V14.8748C12.0986 14.674 12.428 14.4811 12.7654 14.2803C14.0671 13.5089 15.3687 12.7456 16.6622 11.9743C16.6703 11.9824 16.6783 11.9743 16.6863 11.9663Z" fill="#62688F"/>
<path d="M11.7595 8.76994V8.75387V8.70566V2.8725C11.7595 2.8484 11.7514 2.83233 11.7675 2.80823C13.3985 5.5159 15.0296 8.21555 16.6526 10.9232C16.6686 10.9473 16.6928 10.9795 16.7008 11.0116C16.5883 10.9714 16.4839 10.9152 16.3794 10.867C16.2508 10.8107 16.1143 10.7465 15.9857 10.6902C15.9054 10.65 15.817 10.6179 15.7366 10.5777C15.6 10.5135 15.4635 10.4572 15.3269 10.3929C15.2465 10.3608 15.1662 10.3206 15.0858 10.2804L14.5555 10.0394C14.4672 9.99924 14.3788 9.95906 14.2824 9.91889L13.8967 9.75016C13.8163 9.71802 13.736 9.67785 13.6557 9.63768L13.1254 9.39664C13.037 9.35647 12.9486 9.31629 12.8522 9.27612L12.4665 9.10739C12.3781 9.06722 12.2978 9.02704 12.2094 8.98687C12.0568 8.91456 11.9041 8.84225 11.7434 8.77797C11.7675 8.76994 11.7595 8.76994 11.7595 8.76994Z" fill="#62688F"/>
</g>
</g>
<defs>
<clipPath id="clip0_3727_9564">
<rect width="21.7435" height="21.7435" fill="white" transform="translate(0.87207 -6.10352e-05)"/>
</clipPath>
<clipPath id="clip1_3727_9564">
<rect width="21.7409" height="21.7409" fill="white" transform="translate(0.87207 -6.10352e-05)"/>
</clipPath>
</defs>
</svg>
