<svg width="23" height="23" viewBox="0 0 23 23" fill="none" xmlns="http://www.w3.org/2000/svg">
<g clip-path="url(#clip0_3956_3800)">
<g clip-path="url(#clip1_3956_3800)">
<mask id="mask0_3956_3800" style="mask-type:alpha" maskUnits="userSpaceOnUse" x="0" y="0" width="23" height="23">
<path d="M0.89064 0.128784H22.8906V22.1287H0.89064V0.128784Z" fill="white"/>
</mask>
<g mask="url(#mask0_3956_3800)">
<path fill-rule="evenodd" clip-rule="evenodd" d="M11.8906 0.128784C17.9659 0.128784 22.8906 5.05353 22.8906 11.1288C22.8906 17.2035 17.9659 22.1288 11.8906 22.1288C5.81539 22.1288 0.89064 17.2035 0.89064 11.1288C0.89064 5.05353 5.81539 0.128784 11.8906 0.128784Z" fill="#2775CA"/>
</g>
<path fill-rule="evenodd" clip-rule="evenodd" d="M9.82834 18.7801C9.82834 19.0388 9.62571 19.1858 9.37546 19.1077C6.04959 18.0467 3.63821 14.9281 3.63821 11.2483C3.63821 7.5687 6.04959 4.44995 9.37546 3.38895C9.62571 3.31133 9.82834 3.45783 9.82834 3.71658V4.35533C9.82834 4.52758 9.69484 4.73033 9.53071 4.78645C6.89934 5.7527 5.01434 8.28058 5.01434 11.244C5.01434 14.2073 6.89934 16.7357 9.53071 17.7015C9.69484 17.762 9.82834 17.9602 9.82834 18.1331V18.7801Z" fill="white"/>
<path fill-rule="evenodd" clip-rule="evenodd" d="M12.5765 16.4002C12.5765 16.5902 12.4213 16.7455 12.2315 16.7455H11.5455C11.3558 16.7455 11.2005 16.5902 11.2005 16.4002V15.3133C9.69928 15.1107 8.96616 14.2693 8.76766 13.1263C8.73303 12.9319 8.88828 12.7552 9.08678 12.7552H9.87191C10.0358 12.7552 10.1739 12.8718 10.2084 13.0354C10.3552 13.7171 10.7477 14.2391 11.951 14.2391C12.8397 14.2391 13.4697 13.743 13.4697 13.0013C13.4697 12.2591 13.0985 11.9788 11.7958 11.7629C9.87191 11.5042 8.96178 10.9217 8.96178 9.41195C8.96178 8.24732 9.84191 7.34157 11.2049 7.14732V6.08182C11.2049 5.89195 11.3603 5.73657 11.5499 5.73657H12.2359C12.4257 5.73657 12.5809 5.89195 12.5809 6.08182V7.17757C13.6895 7.37632 14.3927 8.0057 14.6214 9.04957C14.6644 9.24832 14.5092 9.43345 14.3065 9.43345H13.5817C13.4264 9.43345 13.297 9.32982 13.2497 9.17895C13.0555 8.51495 12.5809 8.23032 11.7569 8.23032C10.8468 8.23032 10.3765 8.6702 10.3765 9.28695C10.3765 9.93832 10.6442 10.2659 12.0419 10.4691C13.931 10.7278 14.9062 11.2669 14.9062 12.8763C14.9062 14.097 14.0002 15.0848 12.5809 15.3133V16.4002H12.5765Z" fill="white"/>
<path fill-rule="evenodd" clip-rule="evenodd" d="M14.4055 19.1046C14.1555 19.1827 13.9527 19.0357 13.9527 18.777V18.1387C13.9527 17.9489 14.0692 17.7721 14.2503 17.7071C16.8817 16.7409 18.7667 14.213 18.7667 11.2496C18.7667 8.28623 16.8817 5.75836 14.2503 4.79211C14.0864 4.73161 13.9527 4.53336 13.9527 4.36049V3.72224C13.9527 3.46349 14.1555 3.31261 14.4055 3.39411C17.7314 4.45574 20.1428 7.57436 20.1428 11.254C20.1387 14.9249 17.7314 18.0392 14.4055 19.1046Z" fill="white"/>
</g>
</g>
<defs>
<clipPath id="clip0_3956_3800">
<rect width="22" height="22" fill="white" transform="translate(0.890625 0.128662)"/>
</clipPath>
<clipPath id="clip1_3956_3800">
<rect width="22" height="22" fill="white" transform="translate(0.890625 0.128662)"/>
</clipPath>
</defs>
</svg>
