<svg width="23" height="23" viewBox="0 0 23 23" fill="none" xmlns="http://www.w3.org/2000/svg">
<g clip-path="url(#clip0_3956_3762)">
<g clip-path="url(#clip1_3956_3762)">
<path d="M22.87 11.0634C22.87 17.1085 17.9698 22.0087 11.9247 22.0087C5.87983 22.0087 0.979416 17.1085 0.979416 11.0634C0.979416 5.01847 5.87983 0.118164 11.9247 0.118164C17.9698 0.118164 22.87 5.01847 22.87 11.0634Z" fill="#1BA27A"/>
<path d="M17.0592 5.63428H6.69516V8.13637H10.6262V11.814H13.1282V8.13637H17.0592V5.63428Z" fill="white"/>
<path d="M11.9057 12.2088C8.65381 12.2088 6.01743 11.6942 6.01743 11.0592C6.01743 10.4244 8.6537 9.90964 11.9057 9.90964C15.1575 9.90964 17.7938 10.4244 17.7938 11.0592C17.7938 11.6942 15.1575 12.2088 11.9057 12.2088ZM18.5171 11.2509C18.5171 10.4322 15.5571 9.76855 11.9057 9.76855C8.25431 9.76855 5.29405 10.4322 5.29405 11.2509C5.29405 11.9718 7.58939 12.5725 10.631 12.7056V17.985H13.1328V12.7077C16.1978 12.5788 18.5171 11.9756 18.5171 11.2509Z" fill="white"/>
</g>
</g>
<defs>
<clipPath id="clip0_3956_3762">
<rect width="22" height="22" fill="white" transform="translate(0.890625 0.0739746)"/>
</clipPath>
<clipPath id="clip1_3956_3762">
<rect width="22" height="22" fill="white" transform="translate(0.890625 0.0739746)"/>
</clipPath>
</defs>
</svg>
