<svg width="15" height="13" viewBox="0 0 15 13" fill="none" xmlns="http://www.w3.org/2000/svg">
<path d="M14.1033 5.28247C14.1664 5.13202 14.1829 4.96646 14.1507 4.80675C14.1185 4.64704 14.0391 4.50035 13.9225 4.38524L9.75579 0.269531L8.57745 1.43345L11.3216 4.14406H0.833287V5.79035H13.3333C13.4981 5.79039 13.6592 5.74216 13.7963 5.65176C13.9333 5.56136 14.0402 5.43284 14.1033 5.28247ZM0.896621 7.94451C0.833534 8.09496 0.817041 8.26051 0.84923 8.42022C0.881419 8.57993 0.960844 8.72662 1.07745 8.84173L5.24412 12.9574L6.42245 11.7935L3.67829 9.08291H14.1666V7.43663H1.66662C1.50179 7.43648 1.34063 7.48467 1.20355 7.57508C1.06647 7.66549 0.959649 7.79407 0.896621 7.94451Z" fill="#EEB31D"/>
</svg>
