<svg width="41" height="41" viewBox="0 0 41 41" fill="none" xmlns="http://www.w3.org/2000/svg">
<rect x="0.473633" y="-0.0601349" width="40.4658" height="40.1711" rx="5.02138" fill="#AFB1C6" fill-opacity="0.07"/>
<path d="M12.4936 11.6648C12.6102 11.5479 12.7487 11.4551 12.9012 11.3919C13.0537 11.3286 13.2172 11.296 13.3823 11.296C13.5475 11.296 13.711 11.3286 13.8635 11.3919C14.016 11.4551 14.1545 11.5479 14.2711 11.6648L20.9144 18.3106L27.5577 11.6648C27.6744 11.5481 27.813 11.4555 27.9655 11.3923C28.118 11.3292 28.2814 11.2966 28.4465 11.2966C28.6116 11.2966 28.775 11.3292 28.9275 11.3923C29.08 11.4555 29.2186 11.5481 29.3353 11.6648C29.452 11.7815 29.5446 11.9201 29.6077 12.0726C29.6709 12.2251 29.7034 12.3885 29.7034 12.5536C29.7034 12.7186 29.6709 12.8821 29.6077 13.0346C29.5446 13.1871 29.452 13.3256 29.3353 13.4424L22.6895 20.0857L29.3353 26.7289C29.452 26.8457 29.5446 26.9842 29.6077 27.1367C29.6709 27.2892 29.7034 27.4527 29.7034 27.6177C29.7034 27.7828 29.6709 27.9462 29.6077 28.0987C29.5446 28.2512 29.452 28.3898 29.3353 28.5065C29.2186 28.6232 29.08 28.7158 28.9275 28.779C28.775 28.8422 28.6116 28.8747 28.4465 28.8747C28.2814 28.8747 28.118 28.8422 27.9655 28.779C27.813 28.7158 27.6744 28.6232 27.5577 28.5065L20.9144 21.8607L14.2711 28.5065C14.1544 28.6232 14.0159 28.7158 13.8634 28.779C13.7109 28.8422 13.5474 28.8747 13.3823 28.8747C13.2173 28.8747 13.0538 28.8422 12.9013 28.779C12.7488 28.7158 12.6103 28.6232 12.4936 28.5065C12.3768 28.3898 12.2843 28.2512 12.2211 28.0987C12.1579 27.9462 12.1254 27.7828 12.1254 27.6177C12.1254 27.4527 12.1579 27.2892 12.2211 27.1367C12.2843 26.9842 12.3768 26.8457 12.4936 26.7289L19.1394 20.0857L12.4936 13.4424C12.3767 13.3258 12.2839 13.1872 12.2206 13.0347C12.1573 12.8822 12.1248 12.7187 12.1248 12.5536C12.1248 12.3885 12.1573 12.225 12.2206 12.0724C12.2839 11.9199 12.3767 11.7814 12.4936 11.6648Z" fill="white"/>
</svg>
