<svg width="25" height="25" viewBox="0 0 25 25" fill="none" xmlns="http://www.w3.org/2000/svg">
<path d="M4.7417 8.04454C4.7417 6.08374 6.36589 4.48694 8.36133 4.48694H12.3302C14.3216 4.48694 15.9417 6.07894 15.9417 8.03654V16.9293C15.9417 18.8909 14.3175 20.4869 12.3213 20.4869H8.354C6.36182 20.4869 4.7417 18.8949 4.7417 16.9373V16.1853V8.04454Z" fill="#FFB703"/>
<path d="M20.5679 12.0464L18.2913 9.71921C18.056 9.47921 17.6773 9.47921 17.4428 9.72081C17.2091 9.96241 17.2098 10.352 17.4444 10.592L18.6917 11.8664H17.4958H10.7835C10.4524 11.8664 10.1836 12.1424 10.1836 12.4824C10.1836 12.8232 10.4524 13.0984 10.7835 13.0984H18.6917L17.4444 14.3728C17.2098 14.6128 17.2091 15.0024 17.4428 15.244C17.5604 15.3648 17.7139 15.4256 17.8682 15.4256C18.0209 15.4256 18.1744 15.3648 18.2913 15.2456L20.5679 12.9192C20.6809 12.8032 20.7448 12.6464 20.7448 12.4824C20.7448 12.3192 20.6809 12.1624 20.5679 12.0464Z" fill="white"/>
</svg>
