<svg width="26" height="25" viewBox="0 0 26 25" fill="none" xmlns="http://www.w3.org/2000/svg">
<g clip-path="url(#clip0_3733_1247)">
<path d="M13.0119 0.371765C6.36846 0.371765 0.962643 5.77608 0.962643 12.4203C0.962643 19.0644 6.36846 24.4688 13.0119 24.4688C19.6553 24.4688 25.0611 19.0644 25.0611 12.4203C25.0611 5.77608 19.6553 0.371765 13.0119 0.371765ZM13.0119 23.6662C6.81106 23.6662 1.76668 18.6211 1.76668 12.4203C1.76668 6.21943 6.81106 1.1743 13.0119 1.1743C19.2127 1.1743 24.2571 6.21943 24.2571 12.4203C24.2571 18.6211 19.2127 23.6662 13.0119 23.6662Z" fill="#F2F2F2"/>
<path d="M15.642 5.65821H13.6372C11.0838 5.63266 10.7577 7.21293 10.7577 8.92319V10.1668H9.63052C9.57958 10.16 9.52775 10.165 9.47906 10.1815C9.43038 10.198 9.38615 10.2255 9.3498 10.2618C9.31346 10.2982 9.28598 10.3424 9.26951 10.3911C9.25303 10.4398 9.248 10.4916 9.25481 10.5425V12.7968C9.248 12.8478 9.25303 12.8996 9.26951 12.9483C9.28598 12.997 9.31346 13.0412 9.3498 13.0776C9.38615 13.1139 9.43038 13.1414 9.47906 13.1579C9.52775 13.1743 9.57958 13.1794 9.63052 13.1726H10.7577V18.8083C10.7514 18.8593 10.7569 18.9111 10.7737 18.9597C10.7905 19.0083 10.8182 19.0524 10.8547 19.0887C10.8912 19.1249 10.9354 19.1524 10.9841 19.1689C11.0328 19.1854 11.0846 19.1906 11.1356 19.184H13.4313C13.653 19.2096 13.8325 19.03 13.7619 18.8083L13.7634 13.1726H15.642C15.6929 13.1794 15.7448 13.1743 15.7935 13.1579C15.8421 13.1414 15.8864 13.1139 15.9227 13.0776C15.9591 13.0412 15.9865 12.997 16.003 12.9483C16.0195 12.8996 16.0245 12.8478 16.0177 12.7968V10.5425C16.0245 10.4916 16.0195 10.4398 16.003 10.3911C15.9865 10.3424 15.9591 10.2982 15.9227 10.2618C15.8864 10.2255 15.8421 10.198 15.7935 10.1815C15.7448 10.165 15.6929 10.16 15.642 10.1668H13.7612L13.7634 9.03966C13.8363 8.5595 13.8363 8.63765 14.2819 8.66395H15.6262C15.7307 8.64065 15.8419 8.65343 15.92 8.57753C15.9982 8.50164 16.0433 8.39794 16.017 8.28823V6.03393C16.0239 5.98302 16.019 5.9312 16.0026 5.88251C15.9862 5.83382 15.9588 5.78956 15.9225 5.7532C15.8862 5.71684 15.842 5.68934 15.7934 5.67287C15.7447 5.65639 15.6929 5.65137 15.642 5.65821ZM15.24 7.87043L14.2977 7.83436C13.1307 7.83436 13.033 8.46782 13.033 9.11631L13.03 10.541C13.0299 10.5938 13.0402 10.646 13.0603 10.6948C13.0805 10.7436 13.11 10.7879 13.1473 10.8253C13.1845 10.8626 13.2288 10.8922 13.2775 10.9124C13.3263 10.9326 13.3785 10.943 13.4313 10.943H15.2663V12.3948H13.4328C13.3263 12.3948 13.2241 12.4371 13.1488 12.5123C13.0734 12.5875 13.031 12.6896 13.0308 12.7961L13.03 18.4326H11.5091V12.7968C11.5091 12.5752 11.3581 12.3956 11.1356 12.3956H10.0062V10.9438H11.1356C11.1884 10.9439 11.2406 10.9336 11.2893 10.9135C11.3381 10.8933 11.3824 10.8638 11.4197 10.8266C11.4948 10.7507 11.5084 10.6485 11.5084 10.5418V8.92244C11.5084 7.23772 11.8488 6.43519 13.6364 6.43519H15.2392V7.87043H15.24Z" fill="#F2F2F2"/>
</g>
<defs>
<clipPath id="clip0_3733_1247">
<rect width="24.0459" height="24.0459" fill="white" transform="translate(0.985168 0.394287)"/>
</clipPath>
</defs>
</svg>
