<svg width="13" height="13" viewBox="0 0 13 13" fill="none" xmlns="http://www.w3.org/2000/svg">
<path d="M7.18068 8.86563C7.15719 8.84237 7.12546 8.82932 7.0924 8.82932C7.05934 8.82932 7.02761 8.84237 7.00412 8.86563L5.1885 10.6813C4.34787 11.5219 2.92912 11.6109 2.00099 10.6813C1.07131 9.75156 1.16037 8.33438 2.00099 7.49375L3.81662 5.67813C3.86506 5.62969 3.86506 5.55 3.81662 5.50157L3.19474 4.87969C3.17125 4.85643 3.13953 4.84338 3.10646 4.84338C3.0734 4.84338 3.04168 4.85643 3.01818 4.87969L1.20256 6.69532C-0.119318 8.01719 -0.119318 10.1563 1.20256 11.4766C2.52443 12.7969 4.6635 12.7984 5.98381 11.4766L7.79943 9.66094C7.84787 9.6125 7.84787 9.53281 7.79943 9.48438L7.18068 8.86563ZM11.2213 1.45938C9.89943 0.137503 7.76037 0.137503 6.44006 1.45938L4.62287 3.275C4.59961 3.2985 4.58656 3.33022 4.58656 3.36328C4.58656 3.39635 4.59961 3.42807 4.62287 3.45157L5.24318 4.07188C5.29162 4.12032 5.37131 4.12032 5.41974 4.07188L7.23537 2.25625C8.07599 1.41563 9.49474 1.32657 10.4229 2.25625C11.3526 3.18594 11.2635 4.60313 10.4229 5.44375L8.60724 7.25938C8.58398 7.28287 8.57093 7.3146 8.57093 7.34766C8.57093 7.38072 8.58398 7.41245 8.60724 7.43594L9.22912 8.05782C9.27756 8.10625 9.35725 8.10625 9.40568 8.05782L11.2213 6.24219C12.5416 4.92032 12.5416 2.78125 11.2213 1.45938ZM7.74474 4.28594C7.72125 4.26268 7.68953 4.24963 7.65646 4.24963C7.6234 4.24963 7.59168 4.26268 7.56818 4.28594L4.02912 7.82344C4.00586 7.84693 3.99281 7.87866 3.99281 7.91172C3.99281 7.94478 4.00586 7.97651 4.02912 8L4.64787 8.61875C4.69631 8.66719 4.776 8.66719 4.82443 8.61875L8.36193 5.08125C8.41037 5.03282 8.41037 4.95313 8.36193 4.90469L7.74474 4.28594Z" fill="white" fill-opacity="0.68"/>
</svg>
