<svg width="16" height="16" viewBox="0 0 16 16" fill="none" xmlns="http://www.w3.org/2000/svg">
<g clip-path="url(#clip0_3727_2541)">
<path d="M14.7677 3.47644V14.529H11.9257L11.9115 14.525L14.6084 5.23668L8.54639 3.47644H14.7677Z" fill="url(#paint0_linear_3727_2541)"/>
<path d="M7.92708 3.2964L8.54686 3.47613L14.6088 5.23636L11.912 14.5247L11.5273 15.8504L0.913086 12.7688L3.99466 2.15466L6.70382 2.9412L7.92708 3.2964Z" fill="#FFB703"/>
<path d="M7.48104 4.92654C7.02917 4.92654 6.6628 4.66302 6.6628 4.338V3.55224C6.6628 3.44781 6.78052 3.36314 6.92571 3.36314C7.07089 3.36314 7.18861 3.44781 7.18861 3.55224V4.338C7.18861 4.45416 7.31955 4.54834 7.48104 4.54834C7.64266 4.54834 7.7736 4.45416 7.7736 4.338V1.83427C7.77335 1.7182 7.64254 1.62411 7.48104 1.62393H7.37C7.20851 1.62411 7.0777 1.7182 7.07757 1.83427V2.64672C7.07757 2.75115 6.95985 2.83582 6.81466 2.83582C6.66947 2.83582 6.55176 2.75115 6.55176 2.64672V1.83427C6.55227 1.50943 6.91826 1.2461 7.37 1.24573H7.48104C7.93278 1.2461 8.2989 1.50943 8.29941 1.83427V4.338C8.2989 4.66293 7.93278 4.92617 7.48104 4.92654Z" fill="white"/>
</g>
<defs>
<linearGradient id="paint0_linear_3727_2541" x1="14.7677" y1="3.47644" x2="11.657" y2="14.529" gradientUnits="userSpaceOnUse">
<stop stop-color="#FFB703" stop-opacity="0.52"/>
<stop offset="1" stop-color="#FFB703" stop-opacity="0"/>
</linearGradient>
<clipPath id="clip0_3727_2541">
<rect width="14.8621" height="14.8621" fill="white" transform="translate(0.412598 0.988403)"/>
</clipPath>
</defs>
</svg>
