<svg width="25" height="25" viewBox="0 0 25 25" fill="none" xmlns="http://www.w3.org/2000/svg">
<path d="M20.2988 8.74219C18.8958 5.78219 15.8358 3.74219 12.2988 3.74219C11.1169 3.74219 9.94661 3.97498 8.85468 4.42727C7.76275 4.87956 6.77059 5.5425 5.93487 6.37823C5.09914 7.21395 4.4362 8.20611 3.98391 9.29804C3.53162 10.39 3.29883 11.5603 3.29883 12.7422C3.29883 13.9241 3.53162 15.0944 3.98391 16.1863C4.4362 17.2783 5.09914 18.2704 5.93487 19.1061C6.77059 19.9419 7.76275 20.6048 8.85468 21.0571C9.94661 21.5094 11.1169 21.7422 12.2988 21.7422C14.6858 21.7422 16.975 20.794 18.6628 19.1061M21.2988 3.74219V9.74219H15.2988" stroke="white" stroke-opacity="0.68" stroke-width="2"/>
</svg>
