<svg width="25" height="25" viewBox="0 0 25 25" fill="none" xmlns="http://www.w3.org/2000/svg">
<path d="M10.6953 18.9377C12.4703 18.9374 14.1941 18.3432 15.5923 17.2497L19.9883 21.6457L21.4023 20.2317L17.0063 15.8357C18.1003 14.4374 18.6949 12.7132 18.6953 10.9377C18.6953 6.52674 15.1063 2.93774 10.6953 2.93774C6.28431 2.93774 2.69531 6.52674 2.69531 10.9377C2.69531 15.3487 6.28431 18.9377 10.6953 18.9377ZM10.6953 4.93774C14.0043 4.93774 16.6953 7.62874 16.6953 10.9377C16.6953 14.2467 14.0043 16.9377 10.6953 16.9377C7.38631 16.9377 4.69531 14.2467 4.69531 10.9377C4.69531 7.62874 7.38631 4.93774 10.6953 4.93774Z" fill="white" fill-opacity="0.68"/>
</svg>
