<svg width="25" height="25" viewBox="0 0 25 25" fill="none" xmlns="http://www.w3.org/2000/svg">
<path d="M21.9735 15.4062L20.4383 14.0937C20.511 13.6484 20.5485 13.1937 20.5485 12.7391C20.5485 12.2844 20.511 11.8297 20.4383 11.3844L21.9735 10.0719C22.0892 9.97274 22.1721 9.84072 22.2111 9.69335C22.25 9.54598 22.2431 9.39025 22.1914 9.24687L22.1703 9.18593C21.7477 8.00474 21.1149 6.90976 20.3024 5.9539L20.2602 5.90468C20.1616 5.78879 20.0302 5.70548 19.8834 5.66573C19.7365 5.62598 19.5811 5.63166 19.4375 5.68202L17.532 6.35937C16.8289 5.78281 16.0438 5.32812 15.1953 5.00937L14.8274 3.01718C14.7996 2.86728 14.7269 2.72937 14.6189 2.62179C14.5109 2.5142 14.3727 2.44202 14.2227 2.41484L14.1594 2.40312C12.9383 2.18281 11.6539 2.18281 10.4328 2.40312L10.3695 2.41484C10.2195 2.44202 10.0814 2.5142 9.97335 2.62179C9.86534 2.72937 9.79262 2.86728 9.76486 3.01718L9.39455 5.01874C8.55288 5.33756 7.76908 5.79201 7.07424 6.36406L5.1547 5.68202C5.01119 5.63126 4.85562 5.62538 4.70868 5.66515C4.56173 5.70492 4.43037 5.78846 4.33205 5.90468L4.28986 5.9539C3.47833 6.91044 2.84559 8.00524 2.42189 9.18593L2.4008 9.24687C2.29533 9.53984 2.38205 9.86796 2.61877 10.0719L4.17267 11.3984C4.10002 11.8391 4.06486 12.2891 4.06486 12.7367C4.06486 13.1867 4.10002 13.6367 4.17267 14.075L2.61877 15.4016C2.50298 15.5007 2.4201 15.6327 2.38117 15.7801C2.34223 15.9274 2.34908 16.0832 2.4008 16.2266L2.42189 16.2875C2.84611 17.4687 3.47424 18.5586 4.28986 19.5195L4.33205 19.5687C4.43061 19.6846 4.56198 19.7679 4.70883 19.8077C4.85569 19.8474 5.01114 19.8418 5.1547 19.7914L7.07424 19.1094C7.77267 19.6836 8.55314 20.1383 9.39455 20.4547L9.76486 22.4562C9.79262 22.6061 9.86534 22.7441 9.97335 22.8516C10.0814 22.9592 10.2195 23.0314 10.3695 23.0586L10.4328 23.0703C11.6651 23.2918 12.9271 23.2918 14.1594 23.0703L14.2227 23.0586C14.3727 23.0314 14.5109 22.9592 14.6189 22.8516C14.7269 22.7441 14.7996 22.6061 14.8274 22.4562L15.1953 20.4641C16.0434 20.1461 16.833 19.69 17.532 19.1141L19.4375 19.7914C19.581 19.8422 19.7366 19.848 19.8835 19.8083C20.0305 19.7685 20.1618 19.685 20.2602 19.5687L20.3024 19.5195C21.118 18.5562 21.7461 17.4687 22.1703 16.2875L22.1914 16.2266C22.2969 15.9383 22.2102 15.6102 21.9735 15.4062ZM18.7742 11.6609C18.8328 12.0148 18.8633 12.3781 18.8633 12.7414C18.8633 13.1047 18.8328 13.468 18.7742 13.8219L18.6195 14.7617L20.3703 16.2594C20.1049 16.8708 19.7699 17.4497 19.3719 17.9844L17.1969 17.2133L16.461 17.818C15.9008 18.2773 15.2774 18.6383 14.6024 18.8914L13.7094 19.2266L13.2899 21.5C12.6279 21.575 11.9596 21.575 11.2977 21.5L10.8781 19.2219L9.9922 18.882C9.32424 18.6289 8.70314 18.268 8.14767 17.8109L7.41174 17.2039L5.22267 17.982C4.82424 17.4453 4.49142 16.8664 4.22424 16.257L5.99377 14.7453L5.84142 13.8078C5.78517 13.4586 5.7547 13.0976 5.7547 12.7414C5.7547 12.3828 5.78283 12.0242 5.84142 11.675L5.99377 10.7375L4.22424 9.22577C4.48908 8.61406 4.82424 8.03749 5.22267 7.50077L7.41174 8.2789L8.14767 7.67187C8.70314 7.21484 9.32424 6.8539 9.9922 6.60077L10.8805 6.26562L11.3 3.98749C11.9586 3.91249 12.6313 3.91249 13.2922 3.98749L13.7117 6.26093L14.6047 6.59609C15.2774 6.84921 15.9031 7.21015 16.4633 7.66953L17.1992 8.27421L19.3742 7.50312C19.7727 8.03984 20.1055 8.61874 20.3727 9.22812L18.6219 10.7258L18.7742 11.6609ZM12.2985 8.38202C10.0203 8.38202 8.17345 10.2289 8.17345 12.507C8.17345 14.7851 10.0203 16.632 12.2985 16.632C14.5766 16.632 16.4235 14.7851 16.4235 12.507C16.4235 10.2289 14.5766 8.38202 12.2985 8.38202ZM14.1547 14.3633C13.9112 14.6074 13.6219 14.8011 13.3033 14.933C12.9848 15.0649 12.6433 15.1326 12.2985 15.132C11.5977 15.132 10.9391 14.8578 10.4422 14.3633C10.198 14.1198 10.0044 13.8305 9.87249 13.5119C9.74056 13.1933 9.67292 12.8518 9.67345 12.507C9.67345 11.8062 9.94767 11.1476 10.4422 10.6508C10.9391 10.1539 11.5977 9.88202 12.2985 9.88202C12.9992 9.88202 13.6578 10.1539 14.1547 10.6508C14.3989 10.8942 14.5925 11.1836 14.7244 11.5021C14.8563 11.8207 14.924 12.1622 14.9235 12.507C14.9235 13.2078 14.6492 13.8664 14.1547 14.3633Z" fill="white" fill-opacity="0.68"/>
</svg>
