<svg width="25" height="25" viewBox="0 0 25 25" fill="none" xmlns="http://www.w3.org/2000/svg">
<g clip-path="url(#clip0_3733_1241)">
<path d="M12.7289 0.371429C6.08543 0.371429 0.679609 5.77575 0.679609 12.4199C0.679609 19.0641 6.08543 24.4684 12.7289 24.4684C19.3723 24.4684 24.7781 19.0641 24.7781 12.4199C24.7781 5.77575 19.3723 0.371429 12.7289 0.371429ZM12.7289 23.6659C6.52802 23.6659 1.48364 18.6208 1.48364 12.4199C1.48364 6.21909 6.52802 1.17396 12.7289 1.17396C18.9297 1.17396 23.9741 6.21909 23.9741 12.4199C23.9741 18.6208 18.9297 23.6659 12.7289 23.6659Z" fill="#F2F2F2"/>
<path d="M5.88921 11.7155L5.88922 11.7155L17.875 7.00673C18.0197 6.9496 18.1773 6.93317 18.3307 6.95923C18.484 6.98527 18.6272 7.05277 18.7449 7.15441C18.8629 7.25574 18.951 7.38743 18.9995 7.53522C19.048 7.68297 19.0552 7.84118 19.0203 7.99272L5.88921 11.7155ZM5.88921 11.7155C5.71747 11.783 5.57221 11.9043 5.47514 12.0612C5.37808 12.2181 5.33444 12.4023 5.35075 12.5861C5.36705 12.7699 5.44244 12.9435 5.56562 13.0809C5.6888 13.2183 5.85315 13.3121 6.03409 13.3483L6.0341 13.3483L9.22713 13.987L5.88921 11.7155ZM9.75476 18.7305C9.85975 18.7744 9.97238 18.7972 10.0862 18.7975L10.0866 18.7975C10.1983 18.7971 10.3088 18.7746 10.4117 18.7312C10.5145 18.6879 10.6077 18.6246 10.6859 18.5449C10.686 18.5449 10.686 18.5448 10.6861 18.5447L12.493 16.7378L15.1801 19.1025C15.1801 19.1025 15.1801 19.1025 15.1801 19.1025C15.335 19.2401 15.5349 19.3162 15.7421 19.3164H15.7423C15.8321 19.3163 15.9214 19.3022 16.0069 19.2745C16.1481 19.2297 16.2751 19.1486 16.3752 19.0394C16.4754 18.9302 16.5451 18.7966 16.5775 18.652C16.5775 18.6519 16.5776 18.6519 16.5776 18.6519L19.0203 7.99283L9.30213 17.9411L9.22713 17.9404C9.22713 17.9405 9.22713 17.9406 9.22713 17.9408C9.22543 18.1102 9.27489 18.2763 9.36905 18.4172C9.46318 18.558 9.5976 18.6672 9.75476 18.7305ZM9.75476 18.7305C9.75459 18.7304 9.75442 18.7304 9.75426 18.7303L9.78323 18.6611L9.75527 18.7307C9.7551 18.7306 9.75493 18.7306 9.75476 18.7305ZM15.7422 19.2414C15.8243 19.2413 15.9059 19.2284 15.984 19.2031C16.1128 19.1622 16.2286 19.0883 16.3199 18.9887L15.7422 19.2414ZM6.01774 12.5289L6.01784 12.5288L6.0174 12.5249C6.01288 12.4856 6.02176 12.4459 6.0426 12.4122C6.06344 12.3785 6.09503 12.3529 6.13226 12.3393L6.13227 12.3394L6.1341 12.3387L16.5681 8.23951L9.48425 13.3556L6.16542 12.6918L6.16542 12.6918L6.16348 12.6914C6.12444 12.6847 6.08881 12.665 6.06237 12.6355C6.03592 12.606 6.0202 12.5684 6.01774 12.5289ZM18.368 7.84148L18.3658 7.85052V7.85143L15.9248 18.5027C15.9176 18.5339 15.9025 18.5627 15.8809 18.5863C15.8592 18.6098 15.8318 18.6274 15.8014 18.6372C15.7709 18.6471 15.7384 18.6488 15.7071 18.6423C15.6758 18.6358 15.6466 18.6213 15.6226 18.6001L10.098 13.7383L18.3697 7.76428C18.3698 7.76463 18.3698 7.76499 18.3699 7.76534C18.375 7.79054 18.3743 7.81655 18.368 7.84148ZM10.2121 18.0718C10.2121 18.0718 10.2121 18.0718 10.2121 18.0718C10.1862 18.0977 10.1533 18.1153 10.1175 18.1224C10.0816 18.1295 10.0445 18.1258 10.0107 18.1119C9.97697 18.0979 9.94811 18.0742 9.92781 18.0438C9.90751 18.0134 9.89668 17.9777 9.89668 17.9411V14.453L11.9893 16.2946L10.2121 18.0718Z" fill="#F2F2F2" stroke="white" stroke-width="0.15"/>
</g>
<defs>
<clipPath id="clip0_3733_1241">
<rect width="24.0459" height="24.0459" fill="white" transform="translate(0.702454 0.394287)"/>
</clipPath>
</defs>
</svg>
