<svg width="24" height="25" viewBox="0 0 24 25" fill="none" xmlns="http://www.w3.org/2000/svg">
<path d="M19.9241 10.8697C19.9998 10.6869 20.0196 10.4858 19.981 10.2918C19.9424 10.0977 19.8471 9.91952 19.7071 9.77968L14.7071 4.77968L13.2931 6.19368L16.5861 9.48668H4.00012V11.4867H19.0001C19.1979 11.4867 19.3912 11.4281 19.5557 11.3183C19.7202 11.2085 19.8484 11.0524 19.9241 10.8697ZM4.07612 14.1037C4.00041 14.2865 3.98062 14.4876 4.01925 14.6816C4.05787 14.8756 4.15318 15.0538 4.29312 15.1937L9.29312 20.1937L10.7071 18.7797L7.41412 15.4867H20.0001V13.4867H5.00012C4.80232 13.4865 4.60892 13.545 4.44443 13.6549C4.27993 13.7647 4.15175 13.9209 4.07612 14.1037Z" fill="#FFB703"/>
</svg>
