<svg width="25" height="25" viewBox="0 0 25 25" fill="none" xmlns="http://www.w3.org/2000/svg">
<path d="M12.447 0.371765C5.80352 0.371765 0.397703 5.77608 0.397703 12.4203C0.397703 19.0644 5.80352 24.4688 12.447 24.4688C19.0904 24.4688 24.4962 19.0644 24.4962 12.4203C24.4962 5.77608 19.0904 0.371765 12.447 0.371765ZM12.447 23.6662C6.24612 23.6662 1.20174 18.6211 1.20174 12.4203C1.20174 6.21943 6.24612 1.1743 12.447 1.1743C18.6478 1.1743 23.6922 6.21943 23.6922 12.4203C23.6922 18.6211 18.6478 23.6662 12.447 23.6662Z" fill="#F2F2F2"/>
<path d="M19.0542 8.69761C19.1375 8.54333 19.2062 8.38156 19.2593 8.21444C19.2839 8.13692 19.2844 8.05377 19.2607 7.97596C19.2371 7.89815 19.1904 7.82935 19.1268 7.77863C19.0632 7.72792 18.9858 7.69768 18.9047 7.6919C18.8235 7.68613 18.7426 7.7051 18.6725 7.7463C18.2874 7.97504 17.8706 8.14546 17.4356 8.25201C16.9075 7.77543 16.2217 7.51123 15.5104 7.51035C15.124 7.51064 14.7416 7.58897 14.3861 7.74063C14.0307 7.89229 13.7095 8.11417 13.4419 8.39295C13.1742 8.67173 12.9657 9.00168 12.8286 9.36302C12.6916 9.72437 12.629 10.1097 12.6444 10.4958C10.9545 10.283 9.41128 9.42789 8.33497 8.10774C8.29373 8.05772 8.24103 8.0184 8.18134 7.99311C8.12166 7.96782 8.05675 7.95731 7.99213 7.96248C7.92752 7.96764 7.8651 7.98832 7.81019 8.02277C7.75527 8.05722 7.70949 8.10441 7.67671 8.16034C7.43026 8.58334 7.2963 9.06244 7.28762 9.55192C7.27894 10.0414 7.39582 10.5249 7.62712 10.9564C7.57039 10.966 7.51589 10.9859 7.46631 11.015C7.40556 11.0538 7.35553 11.1072 7.32086 11.1704C7.28619 11.2335 7.26799 11.3044 7.26793 11.3765C7.26793 12.2294 7.64741 13.0123 8.25908 13.5444L8.23278 13.5707C8.1866 13.6229 8.15483 13.6863 8.1406 13.7545C8.12637 13.8228 8.13016 13.8936 8.15162 13.9599C8.27917 14.3578 8.49214 14.723 8.77562 15.03C9.0591 15.337 9.40624 15.5783 9.79275 15.7371C8.99893 16.1243 8.11056 16.2753 7.23337 16.1721C7.1432 16.1629 7.05253 16.1839 6.97556 16.2318C6.8986 16.2797 6.83968 16.3517 6.80806 16.4366C6.77768 16.5222 6.77711 16.6155 6.80644 16.7015C6.83576 16.7874 6.89327 16.8609 6.96961 16.91C8.16215 17.6754 9.54948 18.082 10.9665 18.0815C15.6104 18.0815 18.3862 14.3093 18.3862 10.6626L18.3854 10.5394C18.8355 10.188 19.2264 9.7669 19.5434 9.292C19.5914 9.2202 19.615 9.13486 19.6107 9.04861C19.6064 8.96235 19.5745 8.87977 19.5196 8.81309C19.4647 8.7464 19.3898 8.69917 19.306 8.67837C19.2222 8.65757 19.1339 8.66432 19.0542 8.69761ZM17.7429 10.0164C17.6884 10.0556 17.6446 10.1078 17.6154 10.1683C17.5863 10.2289 17.5728 10.2957 17.5761 10.3628C17.5806 10.462 17.5829 10.5627 17.5829 10.6619C17.5829 13.9141 15.1084 17.2782 10.9672 17.2782C10.2287 17.2786 9.49529 17.1546 8.79785 16.9115C9.63314 16.7515 10.4178 16.3933 11.086 15.867C11.151 15.8158 11.1986 15.7456 11.2223 15.6663C11.246 15.5869 11.2446 15.5022 11.2182 15.4236C11.1919 15.3451 11.142 15.2766 11.0753 15.2275C11.0086 15.1784 10.9283 15.1512 10.8455 15.1494C10.5215 15.1432 10.2035 15.061 9.91713 14.9093C9.63076 14.7577 9.38404 14.5408 9.19687 14.2763C9.38698 14.2635 9.57333 14.2319 9.75443 14.1831C9.84208 14.1596 9.91919 14.1072 9.97318 14.0342C10.0272 13.9613 10.0549 13.8723 10.0517 13.7816C10.0486 13.6909 10.0148 13.604 9.95589 13.535C9.89699 13.4659 9.81644 13.4189 9.72738 13.4016C9.36145 13.3272 9.02264 13.1546 8.7472 12.9025C8.47175 12.6503 8.27004 12.3281 8.16364 11.9701C8.36352 12.0205 8.56867 12.0498 8.77381 12.0565C8.9504 12.0558 9.11421 11.9476 9.16906 11.7777C9.22392 11.6079 9.15929 11.4208 9.00976 11.3216C8.65619 11.0861 8.38395 10.7471 8.23023 10.351C8.07651 9.95493 8.04879 9.52106 8.15087 9.10865C9.45613 10.4479 11.2186 11.2455 13.0863 11.3419C13.2185 11.3427 13.3343 11.2953 13.4147 11.1984C13.4951 11.1015 13.5259 10.973 13.4973 10.8497C13.3946 10.4071 13.4405 9.943 13.6281 9.52916C13.8157 9.11532 14.1345 8.77485 14.5351 8.56043C14.9357 8.34602 15.3958 8.26961 15.8442 8.34304C16.2926 8.41647 16.7043 8.63563 17.0155 8.96663C17.0622 9.0164 17.1207 9.05349 17.1857 9.07439C17.2506 9.09529 17.3198 9.09932 17.3868 9.0861C17.5107 9.06131 17.6332 9.03275 17.7542 8.99969C17.6997 9.04052 17.643 9.07839 17.5844 9.11316C17.5065 9.16089 17.4471 9.23374 17.4161 9.31971C17.3852 9.40568 17.3844 9.49964 17.414 9.5861C17.4436 9.67256 17.5017 9.74636 17.5789 9.79535C17.656 9.84433 17.7475 9.86557 17.8384 9.85557L17.9751 9.83829C17.8998 9.90032 17.8224 9.95972 17.7429 10.0164Z" fill="#F2F2F2"/>
</svg>
