<svg width="20" height="20" viewBox="0 0 20 20" fill="none" xmlns="http://www.w3.org/2000/svg">
<path d="M12.096 17.9653V10.7563L18.221 4.61528C18.3121 4.52425 18.384 4.41595 18.4326 4.29674C18.4812 4.17753 18.5055 4.04981 18.504 3.92108V3.01328C18.504 2.87165 18.4478 2.73583 18.3476 2.63568C18.2475 2.53554 18.1117 2.47928 17.97 2.47928H1.95002C1.80839 2.47928 1.67257 2.53554 1.57242 2.63568C1.47228 2.73583 1.41602 2.87165 1.41602 3.01328V3.90506C1.41612 4.03119 1.44117 4.15604 1.48975 4.27244C1.53832 4.38883 1.60945 4.49446 1.69904 4.58324L7.82403 10.799V16.2458L12.096 17.9653Z" fill="url(#paint0_linear_3727_11221)"/>
<path d="M18.2264 2.47928H1.67235C1.60247 2.48467 1.53721 2.51629 1.48967 2.56779C1.44213 2.61929 1.41582 2.68687 1.41603 2.75696V3.67544C1.41539 3.76958 1.43347 3.86291 1.46922 3.95C1.50498 4.03709 1.55769 4.11621 1.62429 4.18274L8.0323 10.5908V15.9308L11.9038 17.8585V10.5801L18.3118 4.17206C18.4344 4.03983 18.503 3.86644 18.5041 3.68612V2.75696C18.5041 2.68331 18.4748 2.61268 18.4227 2.56061C18.3707 2.50853 18.3 2.47928 18.2264 2.47928Z" fill="#131E38"/>
<defs>
<linearGradient id="paint0_linear_3727_11221" x1="2.8755" y1="5.46553" x2="17.9671" y2="7.14781" gradientUnits="userSpaceOnUse">
<stop stop-color="#FFB703"/>
<stop offset="0.596961" stop-color="#FFD56A"/>
<stop offset="1" stop-color="#FFC534"/>
</linearGradient>
</defs>
</svg>
