<svg width="22" height="22" viewBox="0 0 22 22" fill="none" xmlns="http://www.w3.org/2000/svg">
<circle cx="10.8286" cy="11.0286" r="10.3362" fill="#101725" stroke="#FFB703" stroke-width="0.898804"/>
<g clip-path="url(#clip0_3727_11417)">
<path d="M15.4706 13.3485C15.4378 11.5663 14.8998 9.61117 13.6013 8.3681C13.7896 8.05505 14.1976 7.594 14.4835 7.31188C14.5985 7.19837 14.6169 7.01919 14.5272 6.88473C14.5085 6.85656 14.0551 6.195 12.9877 6.195C12.1007 6.195 11.4466 6.79631 11.1416 7.0917C10.8077 7.02623 10.4616 6.99309 10.1101 6.99309C6.36184 6.99309 5.16866 8.97641 5.1197 9.06085C5.07134 9.14428 5.061 9.24445 5.0913 9.336C5.11549 9.40906 5.6791 11.0067 8.50948 11.2368C8.39738 10.882 8.36184 10.63 8.35955 10.613C8.33448 10.4285 8.46379 10.2586 8.64834 10.2335C8.83289 10.2082 9.00281 10.3377 9.02785 10.5223C9.02857 10.5274 9.10604 11.1112 9.43666 11.7131C9.91897 12.591 10.1466 12.6992 10.4543 12.8959C10.6106 12.9958 10.7913 12.8089 10.7795 12.6238L10.6503 10.5889C10.6385 10.403 10.7797 10.2427 10.9655 10.231C11.1513 10.2192 11.3116 10.3603 11.3234 10.5462L11.384 11.5001C12.4024 11.7832 13.0815 12.3461 13.3212 13.3671C12.7842 13.7786 12.2908 14.6237 12.2908 15.5248C12.2908 15.7635 12.5325 15.9263 12.7532 15.8379L14.4273 15.1683L16.1236 15.8385C16.3445 15.9257 16.5847 15.7628 16.5847 15.5248C16.5847 14.5596 16.3395 13.9842 15.4706 13.3485ZM7.59214 9.56722C7.40591 9.56722 7.25492 9.41623 7.25492 9.23C7.25492 9.04376 7.40591 8.89278 7.59214 8.89278C7.77838 8.89278 7.92936 9.04376 7.92936 9.23C7.92936 9.41623 7.77838 9.56722 7.59214 9.56722ZM9.72788 9.40985C9.72788 9.59609 9.5769 9.74707 9.39066 9.74707C9.20442 9.74707 9.05344 9.59609 9.05344 9.40985V8.87029C9.05344 8.68406 9.20442 8.53307 9.39066 8.53307C9.5769 8.53307 9.72788 8.68406 9.72788 8.87029V9.40985ZM10.9868 9.40985C10.9868 9.59609 10.8359 9.74707 10.6496 9.74707C10.4634 9.74707 10.3124 9.59609 10.3124 9.40985V8.87029C10.3124 8.68406 10.4634 8.53307 10.6496 8.53307C10.8359 8.53307 10.9868 8.68406 10.9868 8.87029V9.40985Z" fill="#FFB703"/>
<path d="M5.55984 10.4759C5.45866 10.2982 5.5644 10.0739 5.76591 10.0388L5.88307 10.0184L6.45304 9.91917C6.64119 9.8864 6.81634 10.0237 6.82949 10.2142C6.84156 10.389 6.71167 10.5413 6.53717 10.5571L6.073 10.5989L5.84871 10.6234C5.73162 10.6363 5.61811 10.5783 5.55984 10.4759Z" fill="#080C13"/>
</g>
<defs>
<clipPath id="clip0_3727_11417">
<rect width="11.5105" height="11.5105" fill="white" transform="translate(5.07422 5.27322)"/>
</clipPath>
</defs>
</svg>
