<svg width="22" height="22" viewBox="0 0 22 22" fill="none" xmlns="http://www.w3.org/2000/svg">
<circle cx="10.8286" cy="10.9552" r="10.3362" fill="#101725" stroke="#FFB703" stroke-width="0.898804"/>
<g clip-path="url(#clip0_3727_11212)">
<path d="M12.414 7.68379C11.1968 6.65411 9.01942 6.60735 9.01942 6.60735C9.01942 6.60735 9.39241 7.36921 9.42618 8.47921C8.77437 8.86357 8.10555 9.39769 7.43101 10.1073C7.43101 10.1073 6.43488 8.89576 5.08876 9.03038C5.08876 9.03038 4.92721 10.0265 5.68106 10.9957C4.92721 11.965 5.08876 12.9611 5.08876 12.9611C6.43488 13.0957 7.43101 11.8842 7.43101 11.8842C8.37672 12.879 9.31121 13.5291 10.2032 13.9048C10.1518 14.2975 10.1414 14.7547 10.2041 15.3033C10.2041 15.3033 11.2302 15.1912 12.0399 14.315C14.2157 14.365 15.9291 12.8151 16.5848 10.9957C15.9671 9.28204 14.411 7.8075 12.414 7.68379ZM13.9552 10.3263C13.7334 10.3263 13.5537 10.1466 13.5537 9.92479C13.5537 9.70301 13.7334 9.52324 13.9552 9.52324C14.177 9.52324 14.3567 9.70301 14.3567 9.92479C14.3567 10.1466 14.177 10.3263 13.9552 10.3263Z" fill="#FFB703"/>
</g>
<defs>
<clipPath id="clip0_3727_11212">
<rect width="11.5105" height="11.5105" fill="white" transform="translate(5.07422 5.19986)"/>
</clipPath>
</defs>
</svg>
