<svg width="22" height="22" viewBox="0 0 22 22" fill="none" xmlns="http://www.w3.org/2000/svg">
<circle cx="10.8286" cy="11.0054" r="10.3362" fill="#101725" stroke="#FFB703" stroke-width="0.898804"/>
<g clip-path="url(#clip0_3727_11523)">
<path d="M12.3262 10.8454H13.2978V11.8171H12.3262V10.8454Z" fill="#FFB703"/>
<path d="M8.59766 13.4714H13.0621V14.128H8.59766V13.4714Z" fill="#FFB703"/>
<path d="M5.07422 12.3146C5.07381 12.7043 5.33324 13.0464 5.7086 13.1511V11.4783C5.33335 11.583 5.07401 11.9251 5.07422 12.3146Z" fill="#FFB703"/>
<path d="M8.59766 14.5481H13.0621V15.2046H8.59766V14.5481Z" fill="#FFB703"/>
<path d="M6.12891 16.4651H15.5305V9.08559H6.12891V16.4651ZM13.4821 15.4146C13.4821 15.5307 13.3881 15.6247 13.272 15.6247H8.38739C8.27137 15.6247 8.1773 15.5307 8.1773 15.4146V13.2612C8.1773 13.1451 8.27137 13.0511 8.38739 13.0511H13.272C13.3881 13.0511 13.4821 13.1451 13.4821 13.2612V15.4146ZM11.9064 10.635C11.9064 10.519 12.0005 10.4249 12.1165 10.4249H13.5084C13.6244 10.4249 13.7185 10.519 13.7185 10.635V12.0269C13.7185 12.143 13.6244 12.237 13.5084 12.237H12.1165C12.0005 12.237 11.9064 12.143 11.9064 12.0269V10.635ZM7.94095 10.635C7.94095 10.519 8.03502 10.4249 8.15104 10.4249H9.5429C9.65892 10.4249 9.75299 10.519 9.75299 10.635V12.0269C9.75299 12.143 9.65892 12.237 9.5429 12.237H8.15104C8.03502 12.237 7.94095 12.143 7.94095 12.0269V10.635Z" fill="#FFB703"/>
<path d="M15.9512 11.4781V13.1509C16.3261 13.0458 16.5853 12.7038 16.5853 12.3144C16.5853 11.925 16.3261 11.5831 15.9512 11.4781Z" fill="#FFB703"/>
<path d="M8.36133 10.8454H9.333V11.8171H8.36133V10.8454Z" fill="#FFB703"/>
<path d="M11.013 8.87576V7.70507C11.5643 7.61049 11.9537 7.11285 11.913 6.5549C11.8724 5.99705 11.415 5.56117 10.8558 5.54742C10.2966 5.53368 9.81835 5.94658 9.75034 6.50186C9.68232 7.05705 10.0468 7.57315 10.5929 7.69481V8.87576H11.013Z" fill="#FFB703"/>
</g>
<defs>
<clipPath id="clip0_3727_11523">
<rect width="11.5105" height="11.5105" fill="white" transform="translate(5.07422 5.25005)"/>
</clipPath>
</defs>
</svg>
